<svg xmlns="http://www.w3.org/2000/svg" xmlns:xlink="http://www.w3.org/1999/xlink" width="392.087" height="172.104" viewBox="0 0 392.087 172.104">
  <defs>
    <clipPath id="clip-path">
      <rect id="Rectangle_23317" data-name="Rectangle 23317" width="392.087" height="172.104" fill="none"/>
    </clipPath>
    <clipPath id="clip-path-3">
      <rect id="Rectangle_23313" data-name="Rectangle 23313" width="144.072" height="144.072" fill="none"/>
    </clipPath>
    <clipPath id="clip-path-4">
      <rect id="Rectangle_23314" data-name="Rectangle 23314" width="76.518" height="172.104" fill="none"/>
    </clipPath>
  </defs>
  <g id="logo-whiteversion" transform="translate(3)">
    <g id="Group_2109" data-name="Group 2109" transform="translate(-3)" clip-path="url(#clip-path)">
      <g id="Group_2108" data-name="Group 2108">
        <g id="Group_2107" data-name="Group 2107" clip-path="url(#clip-path)">
          <path id="Path_7729" data-name="Path 7729" d="M331.886,124.2a20.732,20.732,0,0,1-9.23-1.866,21.11,21.11,0,0,1-6.449-4.829l5.917-5.983a13.352,13.352,0,0,0,10.353,4.69,7.5,7.5,0,0,0,4.911-1.348,4.448,4.448,0,0,0,1.6-3.577,4.315,4.315,0,0,0-.947-2.843q-.947-1.142-3.846-1.554l-4.082-.528q-6.568-.829-9.614-3.968a11.482,11.482,0,0,1-3.047-8.353,12.016,12.016,0,0,1,1.065-5.094,11.273,11.273,0,0,1,3.047-3.968,14.188,14.188,0,0,1,4.852-2.578,23.634,23.634,0,0,1,14.761.563,16.7,16.7,0,0,1,6.093,4.326l-5.975,6.045a11.986,11.986,0,0,0-3.579-2.782,11.507,11.507,0,0,0-5.3-1.084,7.775,7.775,0,0,0-4.5,1.054,3.393,3.393,0,0,0-1.48,2.928A3.7,3.7,0,0,0,327.6,96.5a8.018,8.018,0,0,0,3.756,1.346l4.083.652q6.389,1.006,9.466,3.939t3.077,8.321a13.694,13.694,0,0,1-1.065,5.449,11.669,11.669,0,0,1-3.107,4.265,14.293,14.293,0,0,1-5.058,2.754,22.273,22.273,0,0,1-6.863.977" transform="translate(-134.805 -34.737)" fill="#fff"/>
          <path id="Path_7730" data-name="Path 7730" d="M405.175,131.094a5.505,5.505,0,0,1-3.934-1.479,6.792,6.792,0,0,1-1.982-3.964H398.9a7.185,7.185,0,0,1-3.136,4.586,10.8,10.8,0,0,1-5.975,1.567q-4.674,0-7.16-2.477a8.834,8.834,0,0,1-2.485-6.547,8.153,8.153,0,0,1,3.58-7.283q3.579-2.389,9.732-2.389h4.911v-1.953a5.19,5.19,0,0,0-1.183-3.579,5.084,5.084,0,0,0-3.964-1.331,6.876,6.876,0,0,0-4.142,1.124,11.1,11.1,0,0,0-2.544,2.544l-5.207-4.641a13.6,13.6,0,0,1,4.763-4.373,16.219,16.219,0,0,1,7.78-1.578q6.626,0,9.94,2.9t3.314,8.461V124.29h2.9v6.8Zm-12.129-5.383a7.179,7.179,0,0,0,3.758-.939,3.287,3.287,0,0,0,1.567-3.054v-3.639h-4.26q-5.147,0-5.147,3.464v.881a2.906,2.906,0,0,0,1.065,2.495,4.978,4.978,0,0,0,3.017.792" transform="translate(-162.064 -42.343)" fill="#fff"/>
          <path id="Path_7731" data-name="Path 7731" d="M442.439,131.623V100.562H451.2v6.744h.3a9.646,9.646,0,0,1,.828-2.514,7.681,7.681,0,0,1,1.568-2.159,7.337,7.337,0,0,1,2.337-1.509,8.328,8.328,0,0,1,3.194-.562h1.538v8.164h-2.189a12.475,12.475,0,0,0-5.709,1.006,3.851,3.851,0,0,0-1.864,3.728v18.163Z" transform="translate(-188.62 -42.871)" fill="#fff"/>
          <path id="Path_7732" data-name="Path 7732" d="M484.1,131.095V100.034h8.757V105.3h.355a9.471,9.471,0,0,1,2.84-4.23,8.112,8.112,0,0,1,5.5-1.746,9.154,9.154,0,0,1,5.444,1.6,8.918,8.918,0,0,1,3.254,4.674h.178a8.437,8.437,0,0,1,3.372-4.437,11.337,11.337,0,0,1,2.78-1.332,10.629,10.629,0,0,1,3.314-.5,8.094,8.094,0,0,1,6.893,3.2q2.4,3.194,2.4,9.111v19.465h-8.755V112.339q0-5.916-4.261-5.916a6.033,6.033,0,0,0-3.55,1.124,3.914,3.914,0,0,0-1.6,3.431v20.116h-8.756V112.339q0-5.916-4.261-5.916a6.638,6.638,0,0,0-1.864.266,4.753,4.753,0,0,0-1.656.858A4.44,4.44,0,0,0,493.3,109a4.252,4.252,0,0,0-.444,1.982v20.116Z" transform="translate(-206.382 -42.343)" fill="#fff"/>
          <path id="Path_7733" data-name="Path 7733" d="M597.72,131.094a5.5,5.5,0,0,1-3.934-1.479,6.8,6.8,0,0,1-1.982-3.964h-.354a7.185,7.185,0,0,1-3.136,4.586,10.8,10.8,0,0,1-5.976,1.567q-4.674,0-7.159-2.477a8.832,8.832,0,0,1-2.485-6.547,8.153,8.153,0,0,1,3.58-7.283q3.579-2.389,9.731-2.389h4.911v-1.953a5.19,5.19,0,0,0-1.183-3.579,5.082,5.082,0,0,0-3.964-1.331,6.878,6.878,0,0,0-4.142,1.124,11.1,11.1,0,0,0-2.544,2.544l-5.207-4.641a13.607,13.607,0,0,1,4.763-4.373,16.219,16.219,0,0,1,7.78-1.578q6.626,0,9.94,2.9t3.314,8.461V124.29h2.9v6.8Zm-12.128-5.383a7.181,7.181,0,0,0,3.758-.939,3.288,3.288,0,0,0,1.567-3.054v-3.639h-4.259q-5.148,0-5.148,3.464v.881a2.906,2.906,0,0,0,1.065,2.495,4.979,4.979,0,0,0,3.018.792" transform="translate(-244.15 -42.343)" fill="#fff"/>
          <path id="Path_7734" data-name="Path 7734" d="M652.9,116.962h-.3a7.762,7.762,0,0,1-1.124,2.338,8.061,8.061,0,0,1-1.864,1.893,8.681,8.681,0,0,1-2.485,1.243,9.394,9.394,0,0,1-2.869.443q-5.917,0-8.935-4.171t-3.017-12.1q0-7.927,3.017-12.07t8.935-4.142a9.031,9.031,0,0,1,5.354,1.657,7.276,7.276,0,0,1,2.988,4.26h.3V78.387h8.755v43.782H652.9Zm-5.739-1.183a6.693,6.693,0,0,0,4.112-1.213,3.939,3.939,0,0,0,1.627-3.342v-9.171a3.943,3.943,0,0,0-1.627-3.343,6.7,6.7,0,0,0-4.112-1.213,5.379,5.379,0,0,0-4.112,1.746,6.621,6.621,0,0,0-1.628,4.7v5.384a6.617,6.617,0,0,0,1.628,4.7,5.375,5.375,0,0,0,4.112,1.745" transform="translate(-269.564 -33.418)" fill="#fff"/>
          <path id="Path_7735" data-name="Path 7735" d="M349.191,192.449v5.176l-.892.892h-.714a11.443,11.443,0,0,1-7.5-2.855c-2.082,1.844-5.057,2.855-8.865,2.855h-12.2v-6.96h10.887c3.748,0,6.187-.952,6.187-4.462,0-4.522-6.425-6.426-14.159-7.675v-7.377c9.7.655,21.3,5.712,21.3,15.706a14.639,14.639,0,0,1-.3,2.915,11.607,11.607,0,0,0,4.7.893h.655Z" transform="translate(-136.008 -73.346)" fill="#fff"/>
          <path id="Path_7736" data-name="Path 7736" d="M401.335,187.665c0,10.827-7.02,14.1-13.386,14.1a12.46,12.46,0,0,1-9.875-4.76,13.509,13.509,0,0,1-8.686,2.8l-.893-.893v-5.176l.893-.893c3.391,0,5.116-.832,6.9-5.472,2.439-6.307,5.474-12.315,13.207-12.315,7.674,0,11.839,6.008,11.839,12.612m-6.6.654c0-3.629-1.488-5.889-5.175-5.889-3.451,0-5,2.38-6.247,5.949a33.861,33.861,0,0,1-1.368,3.51,9.569,9.569,0,0,0,6.663,2.5c4.818,0,6.127-2.618,6.127-6.068" transform="translate(-157.097 -74.628)" fill="#fff"/>
          <path id="Path_7737" data-name="Path 7737" d="M455.278,194.085v5.176l-.892.892c-3.331,0-5.711-.357-7.377-1.131v1.071c0,9.28-4.1,14.516-13.505,14.516a27.071,27.071,0,0,1-3.926-.3v-6.247c.238,0,1.785.119,3.628.119,4.641,0,6.306-2.975,6.306-6.722V175.881h7.5v15.587c1.725,1.25,4.4,1.725,7.377,1.725Z" transform="translate(-183.137 -74.981)" fill="#fff"/>
          <path id="Path_7738" data-name="Path 7738" d="M521.656,173.6v13.088a12.285,12.285,0,0,1-12.434,12.493c-3.688,0-6.841-1.07-9.1-3.51a12.675,12.675,0,0,1-8.984,3.51,11.877,11.877,0,0,1-8.864-3.45c-2.261,2.082-5.592,3.45-10.113,3.45l-.892-.892v-5.176l.892-.892c4.938,0,6.306-2.737,6.306-5.354V176.694h7.5v9.994a14.935,14.935,0,0,1-.357,3.272,8.818,8.818,0,0,0,5.532,2.26,5.062,5.062,0,0,0,5.176-5.354V176.694h7.5v9.994a11.315,11.315,0,0,1-.416,3.213,9.209,9.209,0,0,0,5.593,2.32,5.062,5.062,0,0,0,5.175-5.354V173.6Z" transform="translate(-200.91 -74.009)" fill="#fff"/>
          <g id="Group_2172" data-name="Group 2172">
            <path id="Path_7739" data-name="Path 7739" d="M133.845,83.31c-8.93,0-20.244,5.667-34.59,17.325-5.313,4.318-9.967,8.6-13.2,11.715-3.236-3.112-7.89-7.4-13.2-11.715C58.5,88.977,47.189,83.31,38.258,83.31a38.259,38.259,0,1,0,0,76.518c8.931,0,20.245-5.667,34.59-17.325,5.313-4.318,9.967-8.6,13.2-11.715,3.236,3.112,7.89,7.4,13.2,11.715,14.346,11.658,25.66,17.325,34.59,17.325a38.259,38.259,0,0,0,0-76.518M64.5,132.438c-5.3,4.3-18.479,14.313-26.24,14.313a25.183,25.183,0,0,1,0-50.366c9.374,0,26.947,13.973,38.536,25.156-3.055,2.929-7.41,6.932-12.3,10.9m69.346,14.313c-9.374,0-26.948-13.973-38.536-25.157,3.055-2.929,7.41-6.932,12.3-10.9,5.3-4.3,18.479-14.313,26.241-14.313a25.183,25.183,0,1,1,0,50.366" transform="translate(0 -35.517)" fill="#fff"/>
            <g id="Group_2100" data-name="Group 2100" transform="translate(14.017 14.017)" opacity="0.4">
              <g id="Group_2099" data-name="Group 2099">
                <g id="Group_2098" data-name="Group 2098" clip-path="url(#clip-path-3)">
                  <path id="Path_7740" data-name="Path 7740" d="M103.21,35.62C96.9,41.934,92.9,53.942,91,72.329c-.7,6.81-.964,13.132-1.052,17.62-4.488.088-10.81.348-17.62,1.052C53.942,92.9,41.935,96.9,35.62,103.209a38.259,38.259,0,0,0,54.107,54.107c6.315-6.315,10.308-18.322,12.208-36.709.7-6.811.964-13.132,1.052-17.621,4.489-.088,10.81-.348,17.621-1.052,18.387-1.9,30.394-5.893,36.709-12.209A38.259,38.259,0,0,0,103.21,35.62m-14.3,83.774c-.707,6.794-2.946,23.188-8.433,28.675a25.183,25.183,0,0,1-35.614-35.614C51.5,105.828,73.8,103.282,89.9,103c-.089,4.231-.338,10.142-.99,16.4M148.07,80.48c-6.628,6.628-28.935,9.174-45.037,9.461.088-4.231.338-10.142.99-16.4.708-6.794,2.946-23.188,8.434-28.677A25.183,25.183,0,0,1,148.07,80.48" transform="translate(-24.432 -24.432)" fill="#fff"/>
                </g>
              </g>
            </g>
            <g id="Group_2103" data-name="Group 2103" transform="translate(47.793)" opacity="0.4">
              <g id="Group_2102" data-name="Group 2102">
                <g id="Group_2101" data-name="Group 2101" clip-path="url(#clip-path-4)">
                  <path id="Path_7741" data-name="Path 7741" d="M83.31,38.26c0,8.931,5.667,20.244,17.325,34.59,4.318,5.313,8.6,9.967,11.715,13.2-3.112,3.236-7.4,7.89-11.715,13.2C88.977,113.6,83.31,124.916,83.31,133.846a38.259,38.259,0,1,0,76.518,0c0-8.93-5.667-20.245-17.325-34.59-4.318-5.313-8.6-9.967-11.715-13.2,3.112-3.236,7.4-7.89,11.715-13.2,11.658-14.346,17.325-25.66,17.325-34.59a38.259,38.259,0,0,0-76.518,0m49.128,69.346c4.3,5.3,14.313,18.479,14.313,26.24a25.183,25.183,0,0,1-50.366,0c0-9.374,13.973-26.947,25.156-38.536,2.929,3.055,6.932,7.41,10.9,12.3M146.752,38.26c0,9.374-13.973,26.948-25.157,38.536-2.929-3.055-6.932-7.41-10.9-12.3-4.3-5.3-14.313-18.479-14.313-26.241a25.183,25.183,0,0,1,50.366,0" transform="translate(-83.31 0)" fill="#fff"/>
                </g>
              </g>
            </g>
            <g id="Group_2106" data-name="Group 2106" transform="translate(14.017 14.017)" opacity="0.4">
              <g id="Group_2105" data-name="Group 2105">
                <g id="Group_2104" data-name="Group 2104" clip-path="url(#clip-path-3)">
                  <path id="Path_7742" data-name="Path 7742" d="M35.62,89.726c6.315,6.315,18.322,10.308,36.709,12.209,6.81.7,13.132.964,17.62,1.052.088,4.488.348,10.81,1.052,17.62C92.9,138.994,96.9,151,103.209,157.316a38.259,38.259,0,0,0,54.107-54.107C151,96.895,138.994,92.9,120.607,91c-6.811-.7-13.132-.964-17.621-1.052-.088-4.489-.348-10.81-1.052-17.621-1.9-18.387-5.893-30.394-12.209-36.709A38.259,38.259,0,0,0,35.62,89.726m83.774,14.3c6.794.707,23.188,2.946,28.675,8.433a25.183,25.183,0,0,1-35.614,35.614c-6.628-6.628-9.174-28.935-9.461-45.037,4.231.089,10.142.338,16.4.99M80.48,44.866C87.108,51.494,89.654,73.8,89.941,89.9c-4.231-.088-10.142-.338-16.4-.99-6.794-.708-23.188-2.946-28.677-8.434A25.183,25.183,0,0,1,80.48,44.866" transform="translate(-24.432 -24.432)" fill="#fff"/>
                </g>
              </g>
            </g>
          </g>
        </g>
      </g>
    </g>
  </g>
</svg>
